<svg xmlns="http://www.w3.org/2000/svg" viewBox="0 0 1144.89 1146.55"><defs><style>.cls-1{fill:#0054a5;}</style></defs><title>Ресурс 1</title><g id="Слой_2" data-name="Слой 2"><g id="Azerbaijan_Flag" data-name="Azerbaijan Flag"><path class="cls-1" d="M1019.19,503.67c-8.7-22.81-26.56-43.19-48.29-57.86-62.73-39.84-158.33-42.69-223-6.68-35.26,18-58.41,53.57-65.64,90.17-13.06,60.18-9.7,131.78,36.65,176.88C773,753.57,851.69,764,921.66,744.58c3.31-.64,13.86-3.27,21.13-7.15l2.06-.88c21.72-9,42.44-23.74,57.91-43.66C1038.47,640.71,1040.92,562.46,1019.19,503.67ZM905.27,638.81c-2.44,11.4-10.13,23.24-22.23,27.53-19.28,8.48-45.34,6.13-63.2-3.79-15-10.46-16.89-28-18.83-44.58-1.46-32.69-3.82-67.32,5.34-97.24,7.18-18.53,27-23.28,44.88-24.66,18.82,0,37.11,2.85,48.74,18,7.23,10.88,6.77,25.12,8.2,37.94C907.66,579.06,910.1,611.29,905.27,638.81Z"/><path class="cls-1" d="M333.31,668.27c-15.92-1-33.78.42-49.2-1.46l.46-166.5,1-1.39,47.77-.46c.51-27,1-56-.5-80.64l-181.91-.5-30,.5c-.46,25.13-.46,54.5,0,80.14,16.43.5,31.85,0,47.78,1.47V660.67l-.46,6.63-47.78,1c-1,26.51-1,52.15,0,78.24H333.31Z"/><path class="cls-1" d="M869,782.06c-20.25,29-45.84,56.94-73.78,78.71-1,1.46-3.91.92-4.83-.46-12.11-7.57-25.13-13.74-36.73-21.31,15.46-18.48,30.42-37,42-57.44h-15c-12,17.61-24.58,36.09-40.51,51.72-21.26-8.52-40.55-16.12-62.28-21.84l-2.39-1.81c3.36-9.58,9.62-18.57,11.55-28.07h-13l-13,25.63c-28.45-6.17-59.83-9.5-88.79-11.38-1.47-4.24.46-10.42-1.47-14.25H558.25c-1,5.71,1.43,10-1.46,14.76a557.78,557.78,0,0,0-86.86,10.45l-13.07-25.21c-4.79,0-10.13-.92-13.49.5l12.06,28L454,811.44a612.86,612.86,0,0,0-63.7,22.31l-1.94-1a379,379,0,0,1-37.18-46.89c-2.4-8.11-12.07-3.37-17.36-4.33,11.56,20.88,27,39.37,42.44,58.37-13,7.6-26,16.09-39.58,22.3a347.46,347.46,0,0,1-76.23-80.17c-5.8-.91-9.62-.5-15.46,0,34.75,54.09,88.83,101.48,145.31,129.48a.45.45,0,0,1,.5-.43c.42,0,1.39.88.42,1.38C429.38,931,469.93,944.26,512.87,950,661,969.4,802.48,906.36,884.51,782.06A79.9,79.9,0,0,0,869,782.06Zm-201.23,42.7,1.43-1a269.92,269.92,0,0,1,58.91,20.38c-15.47,17.52-35.26,32.74-53.58,45.51-11.09,6.64-22.23,13.82-33.83,19.45l-20.71-9,1.43-3.28A568.85,568.85,0,0,0,667.81,824.76Zm-95.1-14.25c27.53.51,55,3.36,80.6,9.5l.5,1.43c-13.49,25.59-30.42,50.3-48.74,73.5-8.23,1-15.93-2.32-24.12-2.82l-8.24-1C571.75,863.16,571.24,838.5,572.71,810.51ZM479.59,819c25.09-4.74,51.14-8.53,78.16-8.53l.5,80.23c-10.16,2.3-21.26,2.3-30.92,4.74-19.8-23.32-36.18-48.45-50.18-74.55Zm-77.74,25.64a317.34,317.34,0,0,1,58.87-20.89l2,.5c13.95,26.1,31.34,50.73,48.7,75.39-6.72,3.82-15,6.13-21.68,10a325.17,325.17,0,0,1-87.87-63.57Zm62.28,81.1c-40.55-10.47-78.21-28.49-112.95-53.13v-1.46c11.59-7.06,23.19-14.66,35.71-19.92,27.53,27.11,56,47.48,86.9,66.89A37.93,37.93,0,0,1,464.13,925.78Zm179.06,6.13c-51.14,11-108.13,11.39-159.27-.92-1-2.36,2.39-2.86,3.86-4.24,44.88-29,114.85-29,158.81,2.3C648,931.91,644.14,931,643.19,931.91Zm46.34-13.24-22.69,7.11c-3.87-1.89-7.23-4.75-10.63-7.62l1-1.42c30.89-18,58.88-39.83,85.43-65.93a190.29,190.29,0,0,1,37.19,20.38C752.78,892.62,721.38,906.79,689.53,918.67Z"/><path class="cls-1" d="M259.48,381.27a441.75,441.75,0,0,1,39.09-46.94c12.52-11.85,24.11-23.24,37.65-31.81,12.56,8.07,26.55,14.79,38.61,22.35-15,18.41-30.38,37-41.52,56.86,3.37,1.47,9.67,1,14.5,0,12.06-17.53,25.09-35.09,40.55-50.72,20.72,7.6,41,15.63,62.28,21.34l1.89,1.89-12.06,27.49c5.34,1,8.7.5,14,0,4.33-8,7.69-17,12.52-25.13,28,6.22,57.49,9.5,87.41,10.42,3.86,3.36,1,10.46,2.4,14.71h13c1.43-4.67-.46-10,1.43-14.16,28-1.47,57.44-4.33,84.55-11l2.35.5,13,24.63c4.37,0,10.13,1,13.53-1l-12.1-27.44,1-1c22.15-5.71,42.95-14.24,64.17-22.73,15,15.63,29,34.12,41.56,52.11,5.29,0,10.59.5,14.46-1A193.48,193.48,0,0,0,773,350.88a205.8,205.8,0,0,0-21.27-25.54V322.9l33.79-19.41,4.88-1.9a352.14,352.14,0,0,1,76.22,79.17c5.8,0,10.63,2,15.46-.42-64.7-96.73-171.36-158.92-286.66-167.87l-.51.92-1-.92a221.12,221.12,0,0,0-43-.55,113.24,113.24,0,0,0-17.85.55C417.31,221.42,310.67,280.75,244,381.73,248.85,381.27,254.65,383.2,259.48,381.27ZM459.8,339.58l-1.94.42a387.45,387.45,0,0,1-57.44-19.41l.93-2.86c26.56-25.13,54.54-46,85.43-62.11,7.26,2.86,14.49,5.21,21.72,8.57l-1.43,3.7C488.71,290.71,474.26,315.33,459.8,339.58Zm96,12.77c-13.49,1.89-25.55-.42-39.12-1.47-13-1.89-29.42-3.27-42.44-7.6,14-26,30.42-51.14,50.21-74.34l30.88,4.21C556.79,297.77,555.82,326.26,555.82,352.35Zm15,.51c-1-25.21-.47-53.16,0-79.26,9.66-1.38,20.25-2.85,29.92-4.24,18.82,23.66,37.19,47.95,49.75,73.92A342.66,342.66,0,0,1,570.78,352.86Zm154-33.24c-18.86,8-38.19,15.63-58.91,20A801.19,801.19,0,0,0,616.12,265c6.77-3.69,15-6.55,22.23-10.33,31.43,15.63,61.81,37.9,87.36,63.45ZM663,238.52a344.24,344.24,0,0,1,113.42,53.11l-1,1.89L742.14,312h-2.43c-25.55-25.55-55.47-47.82-85.9-65.42C654.78,243.27,659.61,240.87,663,238.52Zm-19.28-4.75v1c-42,30.29-110.06,33.15-154.44,5.17-2.47-1.89-7.26-2.82-7.77-6.14C532.66,222,593,221,643.69,233.77ZM349.24,292.6a346.92,346.92,0,0,1,99.93-50.26c1.47-1.47,2.39-2.85,4.33-2.85v1c3.86.92,6.76-3.36,10.12-.54,2.9,2.43,6.31,4.32,8.7,6.68C442.4,265,413,286.88,385.92,313.4c-13-4.67-25.08-11.81-36.68-19.88Z"/><path class="cls-1" d="M556.32,672c-45.38,12.35-94.63,2.94-127.45-31.26-3.82-4.75-6.26-10.38-10.13-15.13l-65.13.47c-1,38.39-1.47,82.51,0,120.46l72.36-.45,1-22.78c8.23,3.77,16.43,8.52,24.62,12.77,50.22,20.89,114.85,25.64,164.56,0,36.22-19.87,55.55-58.28,50.21-99.63-5.29-40.26-43.9-76.82-83-86.73L466.52,516l-8.66-4.29c-3.86-3.28-6.3-7.52-5.33-12.78,9.16-15.63,30.42-10.88,46.35-10.46,33.78,4.75,68.54,16.14,88.33,47,21.22,0,45.84.42,69-.5,1-38.87-.42-73-1-112.37-21.72-.5-48.28-.5-70,.51-1,5.63.93,13.65-1.47,19.37L561.61,430.6c-53.11-22.27-127.44-24.63-175.69,10-31.39,22.73-41,63.58-32.81,99.59,6.26,34.12,39.08,59.25,70.47,71.1,42.94,15.17,87.82,26.13,131.31,40.8,4.33,1.93,10.09,6.22,9.16,11.43C564.05,667.72,559.68,670.17,556.32,672Z"/><path class="cls-1" d="M100.06,781.22l2.35,5.42a2.08,2.08,0,0,1-1.22,2.66l-69.54,30a2,2,0,0,1-2.65-1L26.65,813a2,2,0,0,1,1.09-2.61l69.59-30A2,2,0,0,1,100.06,781.22Z"/><path class="cls-1" d="M79.46,725l1.64,4.87a2.16,2.16,0,0,1-1.34,2.74L46.14,744c-10.29,3.49-12.27,8-9.67,15.81,1.44,4.28,4.71,8.52,8.62,12.43l43.12-14.54A2.2,2.2,0,0,1,90.94,759l1.68,5a2.12,2.12,0,0,1-1.39,2.6L39.17,784.25a2.07,2.07,0,0,1-2.7-1.27l-1.72-5.08a2.08,2.08,0,0,1,1.39-2.64l1.93-.68C33,770,29.92,766,27.9,760c-4.16-12.26,1.64-20.33,15.22-25l33.62-11.31A2.16,2.16,0,0,1,79.46,725Z"/><path class="cls-1" d="M69.93,684.83a54.34,54.34,0,0,1,2.14,6.68c2.27,9.66.88,14.83-10.63,17.6l-36.56,8.7,1.26,10.42a1.94,1.94,0,0,1-1.43,2.44l-2.81.68a1.9,1.9,0,0,1-2.36-1.52l-2.43-10.17L6.85,722.1a2.16,2.16,0,0,1-2.52-1.39l-2.14-5.25a2.46,2.46,0,0,0-.09-.29,1.74,1.74,0,0,1,1.43-2l11.39-2.69-2.69-11.34a2.17,2.17,0,0,1,1.6-2.57l3.57-.84A2.15,2.15,0,0,1,20,697.3l2.69,11.31,36.52-8.74c5.76-1.34,6.26-3,5.25-7.22l-1.38-5.85c-.34-1.46-.09-2.3,1-2.56l3.66-.88C68.62,683.15,69.38,683.52,69.93,684.83Z"/><path class="cls-1" d="M35.47,636.42l4.91,35.72,1.52-.21c12.69-1.76,16.68-7.39,15.34-17.23a153,153,0,0,0-3.79-18.82,2.71,2.71,0,0,1-.08-.55,1.48,1.48,0,0,1,1.26-1.89l3.61-.51c1.39-.21,2.19.12,2.73,1.77a99.12,99.12,0,0,1,4.5,18.86c1.68,12.27-2.43,25-22.27,27.78l-9.62,1.3c-15.26,2.15-26.1-5-28.24-20.21C3.2,646.85,11.9,637.6,27.06,635.49l5.76-.79A2.12,2.12,0,0,1,35.47,636.42ZM28.37,645c-12.06,1.68-16.1,6.89-14.8,16.3,1.26,9.17,7.19,13.58,18.71,12l1-.14-3.91-28.27Z"/><path class="cls-1" d="M8.2,599.26c.25,5,1.76,9.39,5.25,14.59l45-2.35a2.24,2.24,0,0,1,2.23,2l.29,5.26a2.12,2.12,0,0,1-2,2.14L4.16,623.82a2.06,2.06,0,0,1-2.22-1.94l-.26-5a2,2,0,0,1,2-2.15L6,614.57c-4-5.17-5.71-10.05-6-14.88,0-1.51.55-2.26,1.85-2.35l4.37-.21C7.4,597,8.11,597.76,8.2,599.26Z"/><path class="cls-1" d="M61.1,543.21l-.21,5.17a2.15,2.15,0,0,1-2.23,2.06L23.32,549C12.48,548.59,9,552.12,8.7,560.27c-.21,4.5,1.31,9.63,3.62,14.67l45.29,1.81A2.25,2.25,0,0,1,59.67,579l-.21,5.25a2.08,2.08,0,0,1-2.22,1.93L2.48,584a2.09,2.09,0,0,1-2.06-2.15l.21-5.38a2.06,2.06,0,0,1,2.23-1.93l2,.09c-3.07-6-4.5-10.93-4.25-17.27C1.13,544.47,9.41,539,23.7,539.6L59,541A2.15,2.15,0,0,1,61.1,543.21Z"/><path class="cls-1" d="M68.12,490.56l-.76,4.92a2.14,2.14,0,0,1-2.44,1.81L62.57,497c2.23,5.55,3.7,11.18,2.82,17.15-1.35,9-6.52,16.72-19.8,14.78l-1.3-.2c-11.47-1.68-16.22-9.25-13.45-28.2L32,492.62,27.78,492c-9-1.3-12.48,1.3-13.7,9.58A151.19,151.19,0,0,0,12.53,518c0,.21,0,.3-.09.51-.17,1-.63,1.89-2,1.68l-3.74-.55c-1.18-.17-1.68-1-1.68-2.52a87.32,87.32,0,0,1,1-16.72c2.18-14.75,10.5-19.63,23.06-17.78l37.11,5.5A2.18,2.18,0,0,1,68.12,490.56Zm-29.37,3.07-1.18,7.86c-1.89,12.86.46,16.68,8,17.81l1.26.17c7.65,1.14,10.22-2.14,11.14-8.32.72-4.91-.12-9.49-2.14-15Z"/><path class="cls-1" d="M77.58,450.85a51.63,51.63,0,0,1-1.1,6.93c-2.31,9.63-5.92,13.62-17.44,10.89L22.48,460l-3.57,9.88a2,2,0,0,1-2.35,1.55l-2.82-.67a1.91,1.91,0,0,1-1.42-2.44l2.43-10.17L4.5,455.68a2.19,2.19,0,0,1-1.64-2.39l.42-5.63a1.05,1.05,0,0,0,.08-.34,1.72,1.72,0,0,1,2.15-1.13l11.43,2.68,2.69-11.29a2.21,2.21,0,0,1,2.6-1.6l3.58.88a2.16,2.16,0,0,1,1.59,2.56l-2.69,11.31,36.52,8.73c5.75,1.35,7,.09,7.94-4.11l1.43-5.84c.33-1.47.92-2.1,2-1.85l3.66.88C77.2,448.75,77.7,449.42,77.58,450.85Z"/><path class="cls-1" d="M17.27,413l-1.6,5.25A2.16,2.16,0,0,1,13,419.67l-8.24-2.52a2.17,2.17,0,0,1-1.43-2.69l1.6-5.25a2.19,2.19,0,0,1,2.69-1.43l8.24,2.52A2.17,2.17,0,0,1,17.27,413Zm65.47,20.34-1.51,4.91a2.16,2.16,0,0,1-2.69,1.43l-52.4-16.05a2.17,2.17,0,0,1-1.43-2.69l1.52-5a2.16,2.16,0,0,1,2.68-1.42l52.4,16.09A2.12,2.12,0,0,1,82.74,433.33Z"/><path class="cls-1" d="M96,398.33C90.14,413,77.49,416.6,62.83,410.76l-7.57-3c-14.7-5.84-21.39-17.18-15.55-31.85s18.53-18.41,33.2-12.57l7.6,3C95.18,372.23,101.82,383.66,96,398.33ZM69.42,372.15c-10.17-4.08-18.28-2.56-22,6.8S48.45,394.88,58.75,399l7.56,3c10.17,4.08,18.28,2.65,22-6.72s-1-16-11.35-20.09Z"/><path class="cls-1" d="M128.88,328.65l-2.44,4.54a2.14,2.14,0,0,1-2.9.88L92.33,317.35c-9.59-5.17-14.25-3.49-18.12,3.7-2.14,4-3,9.29-3.19,14.79l40,21.47a2.3,2.3,0,0,1,.89,2.94l-2.52,4.63a2.13,2.13,0,0,1-2.86.79l-48.37-26a2,2,0,0,1-.92-2.81l2.52-4.75a2.07,2.07,0,0,1,2.86-.75l1.8,1c-.12-6.8.76-11.85,3.74-17.44,6.1-11.39,16-12.69,28.58-5.92L128,325.71A2.2,2.2,0,0,1,128.88,328.65Z"/><path class="cls-1" d="M157.92,284.87,155.1,289a2.16,2.16,0,0,1-3,.54l-1.94-1.3c-.41,5.92-1.59,11.64-5,16.6C140,312.35,132,317,120.9,309.41l-1.05-.71c-9.58-6.56-10.55-15.43.29-31.23l4.5-6.55-3.57-2.44c-7.44-5.08-11.77-4.29-16.52,2.65a151.59,151.59,0,0,0-8.57,14c-.13.17-.17.25-.3.42a1.64,1.64,0,0,1-2.52.63l-3.11-2.1c-1-.67-1.09-1.68-.42-3a95.56,95.56,0,0,1,8.28-14.54c8.45-12.31,18-13,28.49-5.84l31,21.17A2.16,2.16,0,0,1,157.92,284.87Zm-27.73-10.13-4.5,6.56c-7.32,10.71-6.9,15.21-.59,19.54l1.05.71c6.39,4.37,10.13,2.52,13.66-2.65,2.81-4.07,4.08-8.53,4.66-14.37Z"/><path class="cls-1" d="M172.25,266.88l-3.53,4.37a2,2,0,0,1-2.86.17l-59.92-48a2,2,0,0,1-.42-2.77l3.53-4.37a1.94,1.94,0,0,1,2.77-.25l59.92,48A2.07,2.07,0,0,1,172.25,266.88Z"/><path class="cls-1" d="M219.19,217.64c-12.32,11.51-28,12.68-44.34-4.71l-9.49-10.13c-16.35-17.44-14.16-33-1.85-44.58s28-12.65,44.29,4.79l9.5,10.12C233.6,190.53,231.5,206.08,219.19,217.64Zm-18.62-47.87c-12.35-13.19-22.4-13.19-31-5.12s-9.33,18.19,3,31.39L182,206.16c12.35,13.15,22.48,13.11,31.14,5s9.24-18.11-3.11-31.26Z"/><path class="cls-1" d="M236.84,134.77c-4,3-6.73,6.76-9,12.6l27.36,35.76a2.25,2.25,0,0,1-.38,3l-4.21,3.19a2.15,2.15,0,0,1-2.93-.46l-33.29-43.53a2,2,0,0,1,.3-2.94l4-3.07a2,2,0,0,1,2.94.46l1.39,1.77c2-6.22,5-10.34,8.91-13.28,1.17-.93,2.18-.89,2.94.16l2.69,3.49C238.22,132.88,238,133.85,236.84,134.77Z"/><path class="cls-1" d="M285.62,102.37l-2.86,2.69c2.74.71,5.88,2.48,9,7.39l.46.72c6.35,10,3.7,19.42-10.25,28.32a30.78,30.78,0,0,1-11.68,4.88c-1.05,1.72-1.14,3.19-.3,4.54,1,1.55,2.23,1.88,4.67,1.09l15.71-5.13c10.3-3.4,20.47-6.3,25.89,2.23l.46.71c5.55,8.7,3.15,17.73-11.72,27.19-14.29,9.16-24.38,7.78-30-1.09l-.54-.84a17.29,17.29,0,0,1-1.6-15.13l-.84.13c-3.7.58-6.85-1.6-8.66-4.42l0-.08a8.81,8.81,0,0,1-.46-8.91c-4.5-.8-7.94-3.19-10.88-7.82l-.47-.75c-5.13-8.07-5.67-18.91,9.92-28.87l19.83-12.65a2.52,2.52,0,0,1,3.37.68l1.46,2.35C286.88,100.77,286.5,101.53,285.62,102.37Zm-1.72,15.08c-3.45-5.42-8.62-8.1-18.41-1.89-10.17,6.48-9.28,12.45-6.05,17.53l.46.71c2.52,4,7.7,8.07,18.11,1.43,9.79-6.22,9.84-11.6,6.35-17Zm24.41,36.73c-2.27-3.57-6.09-3.15-15.55,0l-11.93,3.91c-1.18,3.95-1.55,7.35,1.47,12.06l.5.84c3.24,5,8.24,6.3,18.33-.08,10.33-6.6,10.84-11,7.65-16Z"/><path class="cls-1" d="M357.35,124.18l-4.45,2.18a2.13,2.13,0,0,1-2.86-1L349,123.25c-3.32,5-7.14,9.37-12.56,12.07-8.2,4-17.48,4.16-23.41-7.91l-.59-1.13c-5.13-10.42-1.64-18.66,15.55-27.1l7.14-3.53-1.89-3.87c-4-8.11-8.2-9.54-15.72-5.8a154.55,154.55,0,0,0-14.36,8,3.41,3.41,0,0,1-.51.25c-.88.42-1.89.59-2.48-.67l-1.68-3.41c-.54-1.05-.12-2,1.14-2.81A90.27,90.27,0,0,1,314,78.71c13.4-6.6,22.14-2.52,27.77,8.87l16.6,33.7A2.18,2.18,0,0,1,357.35,124.18ZM338.1,101.74,331,105.23c-11.68,5.75-13.45,9.91-10.08,16.76l.59,1.14c3.4,7,7.6,7.18,13.19,4.41,4.45-2.18,7.73-5.5,11.14-10.3Z"/><path class="cls-1" d="M410.76,103.67l-4.88,1.77a2.14,2.14,0,0,1-2.73-1.3L391.05,70.9c-3.69-10.22-8.28-12.11-16-9.33-4.24,1.55-8.4,4.91-12.22,8.91l15.5,42.69a2.18,2.18,0,0,1-1.26,2.73l-5,1.81a2.13,2.13,0,0,1-2.65-1.31L350.71,64.8a2.05,2.05,0,0,1,1.18-2.68L357,60.26a2.06,2.06,0,0,1,2.65,1.31l.71,1.93c4.42-5.17,8.41-8.32,14.38-10.5C386.85,48.58,395,54.21,400,67.66l12.1,33.24A2.22,2.22,0,0,1,410.76,103.67Z"/><path class="cls-1" d="M415.17,31.44l-5.29,1.43a2.19,2.19,0,0,1-2.65-1.51L405,23a2.14,2.14,0,0,1,1.51-2.6l5.3-1.47a2.19,2.19,0,0,1,2.65,1.51l2.26,8.32A2.2,2.2,0,0,1,415.17,31.44ZM433,97.67,428,99a2.16,2.16,0,0,1-2.65-1.52L411,44.59a2.14,2.14,0,0,1,1.51-2.65l5-1.34a2.2,2.2,0,0,1,2.65,1.51L434.46,95A2.13,2.13,0,0,1,433,97.67Z"/><path class="cls-1" d="M484.38,86.44l-31.94,6.27c-4.53.88-7-1.6-7.6-4.58l-.38-2a9.7,9.7,0,0,1,1.09-7.31l20.64-39.29a2.54,2.54,0,0,0,.25-1c-.09-.46-.38-.72-1.22-.55l-25.67,5A2.16,2.16,0,0,1,437,41.27l-.67-3.61A2.18,2.18,0,0,1,438,35.13l31.1-6.05c4.33-.88,6.3.84,6.93,4l.5,2.56a8.5,8.5,0,0,1-1.3,6.26l-21,40.21a1.65,1.65,0,0,0-.29,1.31c.08.5.25.8,1,.67l27.9-5.46a2.12,2.12,0,0,1,2.52,1.68l.71,3.61A2.17,2.17,0,0,1,484.38,86.44Z"/><path class="cls-1" d="M534.73,81.15l-5,.46a2.17,2.17,0,0,1-2.31-2l-.21-2.36c-4.87,3.49-10,6.22-16,6.77-9.12.84-17.81-2.36-19-15.72l-.13-1.3C491,55.48,497.2,49.09,516.28,47.32l7.89-.71-.37-4.29c-.84-9-4.21-11.8-12.57-11a162.64,162.64,0,0,0-16.3,2.35c-.21.05-.34.05-.55.09-1,.08-1.93-.17-2.06-1.56L492,28.41c-.13-1.17.54-1.89,2.05-2.22a90,90,0,0,1,16.43-3c14.88-1.34,21.56,5.59,22.74,18.2l3.45,37.36A2.2,2.2,0,0,1,534.73,81.15ZM524.8,53.33l-7.89.76c-13,1.17-16.14,4.37-15.43,12l.13,1.29c.71,7.7,4.54,9.38,10.72,8.83,4.91-.46,9.2-2.35,14.07-5.63Z"/><path class="cls-1" d="M575.94,80.69a52,52,0,0,1-7,.63c-9.92.16-14.67-2.36-14.88-14.2l-.54-37.57-10.47-1a2.06,2.06,0,0,1-2.1-1.93l0-2.9a1.93,1.93,0,0,1,2-2l10.46-.17L553.21,11a2.25,2.25,0,0,1,1.89-2.19l5.59-.92H561a1.66,1.66,0,0,1,1.64,1.81l.17,11.72,11.63-.17a2.13,2.13,0,0,1,2.19,2.1l.08,3.66a2.18,2.18,0,0,1-2.14,2.18L563,29.42,563.55,67c.08,5.92,1.6,6.76,5.92,6.68l6-.08c1.51,0,2.27.37,2.32,1.47l0,3.78C577.83,79.8,577.33,80.43,575.94,80.69Z"/><path class="cls-1" d="M594.69,81.69l-5.16-.33a2.16,2.16,0,0,1-2-2.27l3.2-54.75a2.19,2.19,0,0,1,2.27-2l5.17.29a2.2,2.2,0,0,1,2,2.31L597,79.64A2.18,2.18,0,0,1,594.69,81.69Zm4.2-68.49-5.5-.34a2.15,2.15,0,0,1-2-2.26l.5-8.58a2.15,2.15,0,0,1,2.27-2l5.51.29a2.2,2.2,0,0,1,2,2.27l-.51,8.61A2.15,2.15,0,0,1,598.89,13.2Z"/><path class="cls-1" d="M631.75,86.06C616,83.92,609.44,72.49,611.59,56.82l1.08-8.11c2.1-15.67,11.52-25,27.19-22.82s22.4,13.57,20.29,29.25l-1.08,8.11C656.92,78.92,647.43,88.21,631.75,86.06Zm19-32.18c1.48-10.89-1.92-18.41-12-19.8S623.56,39,622,50L621,58.08c-1.47,10.88,1.85,18.4,11.9,19.79S648.18,73,649.66,62Z"/><path class="cls-1" d="M707.22,101.23l-5-1.26a2.14,2.14,0,0,1-1.55-2.64L709.41,63c2.69-10.55,0-14.67-8-16.73-4.37-1.09-9.7-.67-15.13.51l-11.21,44a2.22,2.22,0,0,1-2.61,1.56l-5.12-1.3a2.16,2.16,0,0,1-1.48-2.57l13.58-53.24A2.06,2.06,0,0,1,682,33.67L687.18,35a2,2,0,0,1,1.47,2.56l-.5,2c6.55-1.77,11.63-2.14,17.81-.55,12.53,3.2,16.18,12.44,12.65,26.35l-8.78,34.33A2.16,2.16,0,0,1,707.22,101.23Z"/><path class="cls-1" d="M798.4,56.06l-4.79-2C789,52.16,787,53,784.75,58.42l-3,7.18,10.46,4.29a2,2,0,0,1,1.14,2.6l-1.6,3.87a1.86,1.86,0,0,1-2.56.92L778.74,73,760,118.34a2.24,2.24,0,0,1-2.73,1.18l-4.88-2a2.23,2.23,0,0,1-1.17-2.78L770,69.34l-9.2-5.08a2.07,2.07,0,0,1-1.18-2.56l1.13-2.7a2,2,0,0,1,2.61-1L773,62,776,54.84c4.41-10.67,10.88-11.72,19.62-8.1a25.46,25.46,0,0,1,5.34,2.89c1,.76,1.6,1.48,1.26,2.4l-1.39,3.28C800.38,56.4,799.5,56.48,798.4,56.06Z"/><path class="cls-1" d="M795.76,138.51c-14-7.36-16.3-20.34-9-34.33L790.59,97c7.35-14,19.33-19.5,33.32-12.14s16.4,20.33,9,34.33l-3.79,7.27C821.81,140.4,809.75,145.82,795.76,138.51Zm28.83-23.74c5.08-9.71,4.41-17.94-4.55-22.65-8.81-4.62-15.92-.59-21.09,9.2l-3.78,7.27c-5.08,9.7-4.5,17.9,4.46,22.56s16,.63,21.18-9.16Z"/><path class="cls-1" d="M874.25,124.26c-4.15-2.64-8.61-4-14.87-4.2L835,157.88a2.19,2.19,0,0,1-2.94.63l-4.46-2.81a2.22,2.22,0,0,1-.55-2.95l29.63-46a2.09,2.09,0,0,1,2.9-.71l4.24,2.73a2,2,0,0,1,.55,2.9l-1.22,1.89c6.56-.26,11.47,1.26,15.51,3.86,1.26.8,1.56,1.77.88,2.86l-2.39,3.7C876.52,125,875.51,125.1,874.25,124.26Z"/><path class="cls-1" d="M888.88,201.46a110.45,110.45,0,0,1-12.52-12.82c-1.18-1.43-1.05-1.89-.3-2.81l2.82-3.24a1.69,1.69,0,0,1,2.52-.13.93.93,0,0,0,.25.21c3.44,3.58,9.25,8.87,13,12.1,9.8,8.45,15.77,6.77,20.69,1.06,3.52-4,3.1-8.37-.35-19.33l-3.78-11.6c-3.53-11.06-3.69-18.41,1.94-24.92,8.48-9.88,19.5-8.32,31.89,2.35a151.67,151.67,0,0,1,13.32,13.19,1.91,1.91,0,0,1,.17,2.61l-3,3.49a1.66,1.66,0,0,1-2.47.13l-.17-.17c-3.41-3.32-8.87-8.49-13.58-12.56-8.4-7.23-13.52-8.54-18.66-2.61-3.31,3.87-2.6,8.45.39,17.52l3.61,11c4.58,13.74,4.08,21.09-1.55,27.61C916.32,210.32,904.94,215.28,888.88,201.46Z"/><path class="cls-1" d="M934.18,244a52.33,52.33,0,0,1-5.26-4.62c-6.93-7.06-8.36-12.23.09-20.51l26.81-26.26-6.47-8.28a2,2,0,0,1,0-2.81l2.09-2a1.85,1.85,0,0,1,2.78.12l7.31,7.44,7.53-7.35a2.15,2.15,0,0,1,2.89-.12l4.55,3.4.2.21a1.74,1.74,0,0,1-.17,2.44l-8.4,8.19,8.15,8.28a2.21,2.21,0,0,1,0,3.06l-2.61,2.57a2.21,2.21,0,0,1-3.06,0l-8.11-8.33-26.81,26.27c-4.21,4.12-3.79,5.8-.76,8.86l4.21,4.29c1,1.09,1.26,1.93.5,2.69l-2.69,2.65C936.15,244.78,935.31,244.82,934.18,244Z"/><path class="cls-1" d="M965.4,281l-3.11-3.86a2.15,2.15,0,0,1,.29-3l1.85-1.47c-5.59-2.1-10.75-4.87-14.53-9.54-5.81-7.06-8-16.09,2.39-24.58l1-.84c9-7.31,17.82-5.76,29.88,9.12l5,6.18,3.36-2.74c7-5.71,7.43-10.08,2.15-16.59a154.7,154.7,0,0,0-11.1-12.23,1.85,1.85,0,0,0-.34-.42c-.59-.76-1-1.68.13-2.57l2.9-2.39c.92-.75,1.89-.59,3,.46a95.25,95.25,0,0,1,11.64,12c9.41,11.6,7.4,21.05-2.43,29l-29.12,23.75A2.18,2.18,0,0,1,965.4,281ZM983,257.26l-5-6.14C969.73,241,965.27,240.2,959.39,245l-1,.84c-6,4.87-5.3,9-1.34,13.87,3.11,3.82,7.06,6.3,12.52,8.53Z"/><path class="cls-1" d="M996.83,327.94l-2.77-4.33a2.12,2.12,0,0,1,.63-3l29.71-19.21c9.12-5.92,9.92-10.79,5.46-17.64-2.43-3.79-6.63-7.11-11.39-9.92l-38.11,24.67a2.25,2.25,0,0,1-3-.64l-2.85-4.41a2.14,2.14,0,0,1,.71-2.9l46-29.79a2.09,2.09,0,0,1,2.94.55l2.9,4.49a2.07,2.07,0,0,1-.68,2.9l-1.72,1.09c6,3.15,10,6.35,13.45,11.69,7,10.84,3.4,20.08-8.61,27.86l-29.71,19.24A2.19,2.19,0,0,1,996.83,327.94Z"/><path class="cls-1" d="M1023.23,376.51a102.64,102.64,0,0,1-10.47-16.89c-7.15-14.32-1.1-25.58,13.32-32.81l6.93-3.45c15.09-7.52,27-4.79,34,9.24a75.77,75.77,0,0,1,4.67,11.73l17.89-8.91a2.07,2.07,0,0,1,2.73.92l2.44,4.92a1.92,1.92,0,0,1-1,2.61l-67.32,33.57C1025.2,378.07,1024.4,378.11,1023.23,376.51Zm41.34-28.61a80.27,80.27,0,0,0-5-11.6c-4.72-9.45-12.11-9.58-22.41-4.45l-6.89,3.45c-10.51,5.21-14.87,11.13-10.12,20.62,1.59,3.28,4.24,7.86,6.17,11Z"/><path class="cls-1" d="M1041.63,426.69l-1.73-4.62a2.18,2.18,0,0,1,1.26-2.78l2.23-.84c-4.62-3.78-8.61-8-10.71-13.65-3.15-8.57-2.36-17.82,10.25-22.53l1.22-.42c10.88-4.07,18.65.26,25.34,18.2l2.77,7.48,4-1.52c8.46-3.15,10.3-7.14,7.36-15a161.76,161.76,0,0,0-6.52-15.14c-.08-.21-.12-.29-.2-.5a1.63,1.63,0,0,1,1-2.39l3.53-1.3c1.1-.42,2,0,2.69,1.38a91.83,91.83,0,0,1,7.11,15.13c5.21,14,.24,22.27-11.65,26.68L1044.4,428A2.18,2.18,0,0,1,1041.63,426.69Zm24.29-16.81-2.78-7.48c-4.53-12.19-8.44-14.37-15.63-11.72l-1.18.42c-7.27,2.73-7.9,6.85-5.76,12.69,1.73,4.66,4.67,8.24,9.09,12.1Z"/><path class="cls-1" d="M1101.84,449.63c-1.34-4.74-3.78-8.78-8.32-13.1l-43.44,12a2.22,2.22,0,0,1-2.65-1.51L1046,441.9a2.15,2.15,0,0,1,1.55-2.52l52.9-14.58a2,2,0,0,1,2.61,1.38l1.35,4.88a2.08,2.08,0,0,1-1.51,2.56l-2.19.59c5,4.21,7.73,8.57,9,13.24.42,1.47,0,2.35-1.26,2.73l-4.24,1.13C1103.06,451.65,1102.22,451.1,1101.84,449.63Z"/><path class="cls-1" d="M1062.47,510.69a105.67,105.67,0,0,1-5.43-19.12c-2.93-15.76,6-25,21.82-27.9l7.64-1.43c16.6-3.07,27.32,2.82,30.18,18.24a78.11,78.11,0,0,1,1.26,12.56l19.67-3.66A2,2,0,0,1,1140,491l1,5.37a1.93,1.93,0,0,1-1.64,2.27l-74,13.79C1063.94,512.71,1063.14,512.54,1062.47,510.69Zm47.65-16.18a87.59,87.59,0,0,0-1.59-12.52c-1.94-10.38-9-12.56-20.3-10.42l-7.61,1.38c-11.55,2.15-17.35,6.65-15.42,17.11.67,3.61,1.93,8.74,2.94,12.27Z"/><path class="cls-1" d="M1063.73,533.38l-.51-5.17a2.14,2.14,0,0,1,1.9-2.35l54.58-5.67a2.11,2.11,0,0,1,2.35,1.89l.55,5.17a2.16,2.16,0,0,1-1.93,2.35l-54.54,5.67A2.17,2.17,0,0,1,1063.73,533.38Zm68.32-6.93-.58-5.46a2.17,2.17,0,0,1,1.93-2.36l8.57-.88a2.13,2.13,0,0,1,2.36,1.89l.55,5.46a2.19,2.19,0,0,1-1.9,2.4l-8.57.88A2.17,2.17,0,0,1,1132.05,526.45Z"/><path class="cls-1" d="M1066.51,586.12l-1-32.48c-.17-4.67,2.69-6.68,5.72-6.77l2,0a9.8,9.8,0,0,1,7.06,2.23l35.43,26.72a1.9,1.9,0,0,0,1,.42c.42,0,.76-.25.72-1.09l-.8-26.18a2.19,2.19,0,0,1,2.1-2.23l3.66-.08a2.15,2.15,0,0,1,2.22,2.06l1,31.68c.12,4.41-1.86,6.09-5.09,6.18l-2.6.08c-2.27.09-3.91-.63-6-2.31l-36.3-27.23a1.72,1.72,0,0,0-1.23-.5c-.5,0-.84.12-.84.88l.89,28.45a2.18,2.18,0,0,1-2.1,2.23l-3.66.08A2.15,2.15,0,0,1,1066.51,586.12Z"/><path class="cls-1" d="M1063.69,637.42l.37-4.95a2.13,2.13,0,0,1,2.28-2l2.35.17c-2.6-5.38-4.5-10.89-4.08-16.89.64-9.17,5.21-17.22,18.62-16.31l1.3.08c11.6.84,16.89,8,15.55,27.12l-.55,7.93,4.29.3c9,.62,12.35-2.23,12.94-10.64a156,156,0,0,0,.3-16.47,2.46,2.46,0,0,0,0-.54c.08-1,.46-1.89,1.85-1.81l3.78.25c1.17.08,1.77.88,1.85,2.45a91.5,91.5,0,0,1,.25,16.71c-1.06,14.92-9,20.39-21.68,19.51l-37.44-2.61A2.2,2.2,0,0,1,1063.69,637.42Zm29.08-5.29.55-7.94c.92-13-1.73-16.64-9.34-17.18l-1.3-.09c-7.73-.54-10,3-10.46,9.19-.34,4.93.84,9.47,3.28,14.8Z"/><path class="cls-1" d="M1057.43,678a53,53,0,0,1,.58-7c1.52-9.78,4.84-14.08,16.52-12.23l37.1,5.85,2.82-10.13a2,2,0,0,1,2.23-1.73l2.85.46a1.87,1.87,0,0,1,1.61,2.32l-1.61,10.33,10.42,1.64a2.17,2.17,0,0,1,1.81,2.23v5.67a1,1,0,0,0,0,.34,1.73,1.73,0,0,1-2.06,1.3l-11.59-1.8-1.81,11.47a2.2,2.2,0,0,1-2.48,1.8l-3.61-.58a2.18,2.18,0,0,1-1.81-2.48l1.81-11.48-37.11-5.84c-5.84-.92-6.93.43-7.61,4.71l-.92,5.92c-.25,1.51-.8,2.19-1.85,2l-3.74-.58C1058,680,1057.43,679.37,1057.43,678Z"/><path class="cls-1" d="M1053.69,696.17l1.09-5a2.15,2.15,0,0,1,2.57-1.63l53.57,11.9a2.13,2.13,0,0,1,1.64,2.56l-1.09,5a2.18,2.18,0,0,1-2.56,1.64l-53.59-11.9A2.15,2.15,0,0,1,1053.69,696.17Zm67,15.09,1.18-5.38a2.16,2.16,0,0,1,2.56-1.64l8.41,1.9a2.15,2.15,0,0,1,1.63,2.56l-1.17,5.33a2.17,2.17,0,0,1-2.57,1.65l-8.4-1.86A2.15,2.15,0,0,1,1120.67,711.26Z"/><path class="cls-1" d="M1043.44,731.77c4.61-15.14,16.93-19.75,32.06-15.14l7.81,2.4c15.09,4.62,22.69,15.37,18.07,30.51s-17,19.84-32.11,15.2l-7.81-2.38C1046.37,757.73,1038.77,746.85,1043.44,731.77Zm28.61,23.94c10.47,3.2,18.45,1.06,21.43-8.61s-2.35-15.8-12.94-19l-7.82-2.4c-10.5-3.23-18.44-1.14-21.38,8.49s2.3,15.88,12.9,19.17Z"/><path class="cls-1" d="M1016.37,803.37l2.07-4.71a2.14,2.14,0,0,1,2.85-1.09l32.4,14.11c10,4.38,14.45,2.37,17.73-5.12,1.81-4.16,2.23-9.45,2-15l-41.6-18.17a2.22,2.22,0,0,1-1.1-2.81l2.1-4.83a2.21,2.21,0,0,1,2.82-1l50.21,22a2,2,0,0,1,1.13,2.73l-2.14,4.91a2,2,0,0,1-2.77,1l-1.89-.8c.71,6.72.26,11.8-2.31,17.65-5.13,11.81-14.87,13.92-27.94,8.19l-32.4-14.15A2.19,2.19,0,0,1,1016.37,803.37Z"/><path class="cls-1" d="M441.94,1146.55a119.5,119.5,0,0,1-27-2.72c-2.18-.55-3-1.39-3-3v-12c0-1.93,1-2.89,2.48-2.89h.68a174,174,0,0,0,25,1.93c12.06,0,17.14-4.79,17.14-20v-1a93.85,93.85,0,0,1-16.22,1.68c-18.48,0-33.86-7.86-33.86-30.63v-1c0-20.85,12.6-34.84,36.21-34.84,22.11,0,36.78,13,36.78,40.34v21C480.1,1134.49,465.26,1146.55,441.94,1146.55Zm15.25-64.08c0-18.65-5.92-22.48-13.87-22.48-7.56,0-13.31,3.54-13.31,17v1c0,11.26,6.6,14.29,14.7,14.29a89.36,89.36,0,0,0,12.48-1.39Z"/><path class="cls-1" d="M530.61,1146.55c-23.33,0-36.94-13.31-36.94-46.21v-11.81c0-33,13.61-46.4,36.94-46.4s37,13.45,37,46.4v11.81C567.63,1133.24,553.93,1146.55,530.61,1146.55Zm13.57-58c0-21.69-5.89-26.9-13.57-26.9s-13.45,5.21-13.45,26.9v11.81c0,21.68,5.75,26.72,13.45,26.72s13.57-5,13.57-26.72Z"/><path class="cls-1" d="M617.71,1146.55c-23.32,0-36.89-13.31-36.89-46.21v-11.81c0-33,13.57-46.4,36.89-46.4s37.07,13.45,37.07,46.4v11.81C654.78,1133.24,641.08,1146.55,617.71,1146.55Zm13.62-58c0-21.69-5.92-26.9-13.62-26.9s-13.44,5.21-13.44,26.9v11.81c0,21.68,5.8,26.72,13.44,26.72s13.62-5,13.62-26.72Z"/><path class="cls-1" d="M695.54,1125.84v-59l-17.86,7.69a4.75,4.75,0,0,1-1.64.38c-1,0-1.51-.67-1.51-1.76v-15.64a1.91,1.91,0,0,1,1.39-1.93l24.83-11.68a7.72,7.72,0,0,1,3.16-.55h12.35a2.54,2.54,0,0,1,2.6,2.6v79.89H737.1a2.66,2.66,0,0,1,2.78,2.61v14.11a2.81,2.81,0,0,1-2.78,2.78H677.3a2.8,2.8,0,0,1-2.77-2.78v-14.11a2.66,2.66,0,0,1,2.77-2.61Z"/></g></g></svg>