<svg xmlns="http://www.w3.org/2000/svg" viewBox="0 0 432.15 63.93"><defs><style>.cls-1,.cls-2{fill:#72c2ef;}.cls-1{fill-rule:evenodd;}.cls-3{fill:#fff;}.cls-4{fill:none;}</style></defs><title>Ресурс 1</title><g id="Слой_2" data-name="Слой 2"><g id="Слой_1-2" data-name="Слой 1"><path d="M28.28,50.06V40.65c0-1.57-.63-2.35-3.24-2.35H13.17V50.06H0V15.51H29.22c9.83,0,12,2,12,8.25v5.18c0,3-1.51,4.7-3.71,5.33a4.93,4.93,0,0,1,3.92,5V50.06Zm0-23.73c0-1.31-.36-2-2.51-2H13.17v6.06h12.6c2.3,0,2.51-.78,2.51-2.35Z"/><path d="M62.63,50.06c-9.93,0-13.28-1.46-13.28-8.26V15.51H62.58V38.92c0,1.83.78,2.36,3.86,2.36H76c3.08,0,3.81-.53,3.81-2.36V15.51H92.9V41.8c0,6.74-3.25,8.26-13.18,8.26Z"/><polygon points="112.5 50.06 112.5 24.29 99.95 24.29 99.95 15.51 138.22 15.51 138.22 24.29 125.72 24.29 125.72 50.06 112.5 50.06"/><path d="M157.93,50.06c-9.88,0-13.18-1.41-13.18-8.26v-18c0-6.91,3.4-8.26,13.18-8.26h17.51c9.88,0,13.28,1.35,13.28,8.26v18c0,6.9-3.4,8.26-13.28,8.26ZM175.6,26.64c0-1.83-.84-2.35-3.87-2.35H161.8c-2.88,0-3.87.47-3.87,2.35V38.93c0,1.72.68,2.35,3.87,2.35h9.93c3,0,3.87-.58,3.87-2.35Z"/><polygon points="225.05 50.06 209.73 33.49 209.73 50.06 197.19 50.06 197.19 15.51 210.78 15.51 225.42 33.07 225.42 15.51 238.01 15.51 238.01 50.06 225.05 50.06"/><rect x="246.85" y="15.51" width="13.17" height="34.55"/><path d="M281.82,50.06c-9.93,0-13.28-1.46-13.28-8.26v-18c0-6.75,3.35-8.26,13.28-8.26h26.56v8.78H285.59c-2.78,0-3.77.78-3.77,2.35V38.92q0,2.36,3.77,2.36h22.79v8.78Z"/><path d="M343.61,45H330.54l-1.62,5H314.44l14-34.55h16.84l14,34.55h-14Zm-10.24-8.47h7.37L337,25.49Z"/><path class="cls-1" d="M416.66,50.63H383.54a2.15,2.15,0,0,1-2.15-2.15V15.36a2.16,2.16,0,0,1,2.15-2.16h33.12a2.16,2.16,0,0,1,2.16,2.16V48.48a2.16,2.16,0,0,1-2.16,2.15"/><path class="cls-2" d="M385.3,10h-3a.91.91,0,0,1-.9-.9V1.16a.9.9,0,0,1,.9-.9h3a.89.89,0,0,1,.89.9v7.9a.9.9,0,0,1-.89.9"/><path class="cls-2" d="M393.64,10h-3a.9.9,0,0,1-.9-.9V1.16a.9.9,0,0,1,.9-.9h3a.9.9,0,0,1,.9.9v7.9a.9.9,0,0,1-.9.9"/><path class="cls-2" d="M401.73,10h-3a.9.9,0,0,1-.9-.9V1.16a.9.9,0,0,1,.9-.9h3a.9.9,0,0,1,.9.9v7.9a.91.91,0,0,1-.9.9"/><path class="cls-2" d="M409.82,10h-3a.9.9,0,0,1-.89-.9V1.16a.89.89,0,0,1,.89-.9h3a.89.89,0,0,1,.89.9v7.9a.9.9,0,0,1-.89.9"/><path class="cls-2" d="M417.9,9.83h-3a.9.9,0,0,1-.9-.9V1a.9.9,0,0,1,.9-.9h3a.9.9,0,0,1,.9.9v7.9a.9.9,0,0,1-.9.9"/><path class="cls-2" d="M385.16,63.93h-3a.89.89,0,0,1-.9-.89V55.13a.89.89,0,0,1,.9-.89h3a.89.89,0,0,1,.9.89V63a.89.89,0,0,1-.9.89"/><path class="cls-2" d="M393.51,63.8h-3a.9.9,0,0,1-.9-.9V55a.89.89,0,0,1,.9-.89h3a.89.89,0,0,1,.9.89v7.9a.9.9,0,0,1-.9.9"/><path class="cls-2" d="M401.6,63.8h-3a.89.89,0,0,1-.89-.9V55a.89.89,0,0,1,.89-.89h3a.89.89,0,0,1,.89.89v7.9a.89.89,0,0,1-.89.9"/><path class="cls-2" d="M409.68,63.8h-3a.9.9,0,0,1-.9-.9V55a.89.89,0,0,1,.9-.89h3a.89.89,0,0,1,.9.89v7.9a.9.9,0,0,1-.9.9"/><path class="cls-2" d="M417.77,63.93h-3a.89.89,0,0,1-.9-.89V55.13a.89.89,0,0,1,.9-.89h3a.89.89,0,0,1,.9.89V63a.89.89,0,0,1-.9.89"/><path class="cls-2" d="M368.06,17.1v-3a.9.9,0,0,1,.9-.9h7.9a.9.9,0,0,1,.9.9v3a.9.9,0,0,1-.9.9H369a.9.9,0,0,1-.9-.9"/><path class="cls-2" d="M368.06,25.45v-3a.9.9,0,0,1,.9-.9h7.9a.9.9,0,0,1,.9.9v3a.9.9,0,0,1-.9.9H369a.91.91,0,0,1-.9-.9"/><path class="cls-2" d="M368.06,33.54v-3a.9.9,0,0,1,.9-.89h7.9a.89.89,0,0,1,.9.89v3a.89.89,0,0,1-.9.89H369a.9.9,0,0,1-.9-.89"/><path class="cls-2" d="M368.06,41.62v-3a.9.9,0,0,1,.9-.9h7.9a.9.9,0,0,1,.9.9v3a.9.9,0,0,1-.9.9H369a.9.9,0,0,1-.9-.9"/><path class="cls-2" d="M368.06,49.58v-3a.9.9,0,0,1,.9-.9h7.9a.9.9,0,0,1,.9.9v3a.9.9,0,0,1-.9.9H369a.91.91,0,0,1-.9-.9"/><path class="cls-2" d="M422.46,17.49v-3a.89.89,0,0,1,.89-.9h7.9a.9.9,0,0,1,.9.9v3a.9.9,0,0,1-.9.9h-7.9a.89.89,0,0,1-.89-.9"/><path class="cls-2" d="M422.46,25.84v-3a.89.89,0,0,1,.89-.9h7.9a.9.9,0,0,1,.9.9v3a.9.9,0,0,1-.9.9h-7.9a.9.9,0,0,1-.89-.9"/><path class="cls-2" d="M422.46,33.93v-3a.89.89,0,0,1,.89-.89h7.9a.89.89,0,0,1,.9.89v3a.89.89,0,0,1-.9.89h-7.9a.89.89,0,0,1-.89-.89"/><path class="cls-2" d="M422.46,42V39a.89.89,0,0,1,.89-.9h7.9a.9.9,0,0,1,.9.9v3a.9.9,0,0,1-.9.9h-7.9a.89.89,0,0,1-.89-.9"/><path class="cls-2" d="M422.33,50.1v-3a.89.89,0,0,1,.89-.9h7.9a.9.9,0,0,1,.9.9v3a.9.9,0,0,1-.9.9h-7.9a.89.89,0,0,1-.89-.9"/><path class="cls-2" d="M431.77,4.29A4.29,4.29,0,1,1,427.48,0a4.29,4.29,0,0,1,4.29,4.29"/><path class="cls-3" d="M405.18,43.22V37.15c0-1-.41-1.52-2.09-1.52h-7.66v7.59h-8.5V20.92h18.86c6.34,0,7.72,1.32,7.72,5.33v3.34A3.22,3.22,0,0,1,411.12,33a3.18,3.18,0,0,1,2.53,3.21v7Zm0-15.32c0-.84-.24-1.31-1.62-1.31h-8.13V30.5h8.13c1.48,0,1.62-.51,1.62-1.52Z"/><rect class="cls-4" width="432.15" height="63.93"/></g></g></svg>