<svg xmlns="http://www.w3.org/2000/svg" viewBox="0 0 2267.56 2269.13"><defs><style>.cls-1{fill:#0a0;}</style></defs><title>Ресурс 4</title><g id="Слой_2" data-name="Слой 2"><g id="Слой_1-2" data-name="Слой 1"><path class="cls-1" d="M997.27,1451.59c-69.34-106.95-88.45-132.11-144.87-190.75C831,1238.6,779.16,1190,737.24,1152.71c-89-79-112.24-100.79-112.24-105.22,0-7.72,54.64-55.83,142.46-125.45,68.29-54.13,82.38-63.25,97.76-63.25H877.6l15.1,35.26c34.17,79.81,83.26,188.72,91.07,202,9.83,16.71,20.47,21.91,30.84,15.1,8.58-5.6,42.59-72.26,78.08-153,31-70.54,96.71-202.32,137.09-274.85,50.28-90.33,118.4-196.78,154.63-241.55,49.46-61.1,156.92-159,164.36-151.67,1.09,1.08-25,16.73-19.53,11.64,73.29-67.78,2.8,137,31,362.88,8.93,71.56-1,75.46-29,99.26C1437.11,844,1397.57,885.83,1329,978c-122.26,164.2-197.19,284.85-267.15,430.1-14.15,29.38-28.29,57-31.43,61.46-9.49,13.28-14.71,10.43-33.11-18"/><path class="cls-1" d="M1054.72,2267.72c-114.13-10.76-182.93-24.2-272.27-53.09C542.83,2137.09,336,1981.51,193.53,1771.68c-100.65-148.23-160.81-306.3-187-491.39C.93,1240.8.08,1222.44,0,1138.5c-.1-98.27,1.36-119.27,13.21-191C76.11,567.25,332.35,242.33,689.51,90c209.4-89.29,441-112.78,667.42-67.71,424,84.44,766.58,408.83,874.65,828.37,59.65,231.58,44.84,477.28-42.16,699.36-139.78,356.84-456.61,622.39-832.49,697.76-79,15.83-144.11,21.88-228.8,21.28-34.85-.21-67.87-.83-73.41-1.37m185.64-78.87c312.54-31.09,596.2-202.9,771.92-467.53,180.81-272.25,222.61-622,111.4-931.73C2044.45,568.9,1896.81,384.75,1696,256.1c-46.86-30-139.88-76.33-192.27-95.73C1115.8,16.62,684.22,110.41,392.84,401.8,148.33,646.3,40.66,991.9,102.36,1334.22c28.14,156.12,95.47,309.52,192.59,438.9,34.56,46,48.82,62.52,91.63,106.13,180.51,183.9,412.89,291.64,673.9,312.49,39,3.13,135,1.58,179.88-2.89"/><path class="cls-1" d="M482,1677.85V1463.16l79.87,1.37c83.7,1.47,95.07,3,122.75,16.35,32.52,15.74,53.78,46.61,59.26,86,8.4,60.58-19,105.14-73,118.73l-14,3.5,14.59,6.94c28.21,13.41,36,25.16,92.27,138.28l29,58.28h-59l-31.25-66.24c-17.2-36.44-36-72.94-41.71-81.19-20.38-29.16-39.78-36.57-96-36.69l-25.2-.07v184.19H482V1677.85Zm145.53-15.73c23.61-4.28,39.7-14.34,49.39-30.8,7.3-12.42,8-16.09,8-42.38,0-25.38-.88-30.3-7.19-41.6-9.43-16.78-27.76-30.47-46.06-34.39-8.08-1.73-32.08-3.15-53.38-3.15H539.56v155.4H575c19.5,0,43.12-1.39,52.52-3.08M924.74,1893c-21.55-7.07-33.39-14.69-49.22-31.62C850,1834,839,1801.71,836.75,1746.58c-3.17-76.55,14.23-128.33,53.12-158,37.14-28.36,110.56-32.36,152-8.31,15.75,9.13,36.63,32,45.88,50.29,16.93,33.42,24.35,85.66,19,133.68-7.41,66-33.93,107.72-80.06,125.74-23.34,9.15-78.21,10.76-101.89,3m83.9-44.44c17.09-8.78,30.18-26.52,38.14-51.84,8.76-27.85,9.49-100,1.26-127.17-12.73-42-37.54-62.37-76.09-62.37-31.18,0-50.34,10.67-65.59,36.54-21.37,36.22-22.72,131.74-2.43,172,9.56,19,28.56,34.54,48.63,39.82,14.07,3.7,42,.22,56.08-7ZM1190,1678.15v-214.4h54.67v175.54h164V1463.73h54.67v428.84h-54.64l-.77-102.89-.75-102.88H1246.05l-.77,102.88-.75,102.89H1189.9V1678.16Zm426,215.88c-10.29-2.07-29.4-7.28-42.45-11.62l-23.74-7.86v-58.36l30.94,15c76.41,37.15,152.74,29.78,176.61-17,12.67-24.87,9.46-63.21-6.93-81.88-12.85-14.65-30.9-22.48-78.69-34.16s-78.09-24.28-95-39.61c-43.92-39.64-41.68-120,4.53-164.12,28.52-27.21,55.2-36.64,103.86-36.76,31.24-.07,60,4.65,91.36,15l18,5.92V1506c0,15-1,26.91-2.15,26.39s-10.85-5.21-21.46-10.4c-74.12-36.25-154.65-22.43-169.06,29-5.1,18.18-2.54,45,5.55,58.06,8.46,13.7,38.2,27.55,79.65,37.13,72,16.61,102.46,35.52,121,75.18,7.54,16.14,8.07,19.75,8.07,54.69,0,36.34-.29,38-9.31,56.43-15.66,32-44.77,53.45-83.84,61.75-23.62,5-81.6,4.9-106.88-.19Z"/></g></g></svg>